<?xml version="1.0" standalone="no"?>
<!DOCTYPE svg PUBLIC "-//W3C//DTD SVG 20010904//EN"
 "http://www.w3.org/TR/2001/REC-SVG-20010904/DTD/svg10.dtd">
<svg version="1.0" xmlns="http://www.w3.org/2000/svg"
 width="161.000000pt" height="161.000000pt" viewBox="0 0 161.000000 161.000000"
 preserveAspectRatio="xMidYMid meet">
<metadata>
Created by potrace 1.14, written by Peter Selinger 2001-2017
</metadata>
<g transform="translate(0.000000,161.000000) scale(0.100000,-0.100000)"
fill="#000000" stroke="none">
<path d="M633 1590 c-231 -60 -401 -219 -480 -449 -23 -66 -27 -92 -27 -201 0
-137 13 -197 66 -305 47 -95 36 -83 337 -394 235 -242 248 -251 301 -225 27
14 469 465 511 523 87 117 129 258 124 411 -3 120 -6 136 -40 227 -70 185
-225 333 -420 399 -107 36 -265 42 -372 14z m356 -103 c244 -87 394 -304 392
-570 0 -48 -16 -137 -24 -137 -1 0 -18 5 -37 11 -19 5 -60 10 -91 10 l-56 0
13 59 c35 172 -51 349 -208 429 -67 33 -156 53 -207 45 -17 -3 -41 -6 -53 -8
-63 -7 -140 -49 -200 -107 -113 -110 -149 -261 -98 -413 13 -39 39 -86 70
-125 l50 -61 -26 -10 c-64 -25 -168 -2 -221 49 -91 87 -109 338 -36 506 70
161 230 297 400 340 91 23 241 15 332 -18z m-63 -271 c170 -78 232 -302 126
-454 -8 -11 -17 -10 -50 7 -112 57 -243 40 -339 -44 l-51 -45 -42 46 c-75 81
-99 174 -75 282 44 189 252 290 431 208z m24 -521 l32 -17 -127 -125 c-75 -73
-144 -133 -169 -144 -84 -38 -182 -15 -256 59 l-38 39 66 5 c88 7 141 34 227
113 95 90 182 113 265 70z m353 6 c25 -10 27 -13 16 -33 -28 -54 -73 -110
-154 -193 -287 -295 -366 -375 -370 -375 -2 0 -47 44 -99 97 l-95 98 55 12
c30 7 69 20 87 29 17 9 109 93 203 185 94 93 173 169 175 169 2 0 21 6 42 14
43 14 97 13 140 -3z"/>
</g>
</svg>
